<svg width="18" height="18" viewBox="0 0 18 18" fill="none" xmlns="http://www.w3.org/2000/svg">
<g filter="url(#filter0_d_572_3108)">
<path d="M16.5 6.39V2.985C16.5 1.9275 16.02 1.5 14.8275 1.5H11.7975C10.605 1.5 10.125 1.9275 10.125 2.985V6.3825C10.125 7.4475 10.605 7.8675 11.7975 7.8675H14.8275C16.02 7.875 16.5 7.4475 16.5 6.39Z" fill="url(#paint0_linear_572_3108)"/>
<path d="M16.5 14.8275V11.7975C16.5 10.605 16.02 10.125 14.8275 10.125H11.7975C10.605 10.125 10.125 10.605 10.125 11.7975V14.8275C10.125 16.02 10.605 16.5 11.7975 16.5H14.8275C16.02 16.5 16.5 16.02 16.5 14.8275Z" fill="url(#paint1_linear_572_3108)"/>
<path d="M7.875 6.39V2.985C7.875 1.9275 7.395 1.5 6.2025 1.5H3.1725C1.98 1.5 1.5 1.9275 1.5 2.985V6.3825C1.5 7.4475 1.98 7.8675 3.1725 7.8675H6.2025C7.395 7.875 7.875 7.4475 7.875 6.39Z" fill="url(#paint2_linear_572_3108)"/>
<path d="M7.875 14.8275V11.7975C7.875 10.605 7.395 10.125 6.2025 10.125H3.1725C1.98 10.125 1.5 10.605 1.5 11.7975V14.8275C1.5 16.02 1.98 16.5 3.1725 16.5H6.2025C7.395 16.5 7.875 16.02 7.875 14.8275Z" fill="url(#paint3_linear_572_3108)"/>
</g>
<defs>
<filter id="filter0_d_572_3108" x="-0.5" y="-0.25" width="19" height="19" filterUnits="userSpaceOnUse" color-interpolation-filters="sRGB">
<feFlood flood-opacity="0" result="BackgroundImageFix"/>
<feColorMatrix in="SourceAlpha" type="matrix" values="0 0 0 0 0 0 0 0 0 0 0 0 0 0 0 0 0 0 127 0" result="hardAlpha"/>
<feOffset dy="0.25"/>
<feGaussianBlur stdDeviation="0.25"/>
<feComposite in2="hardAlpha" operator="out"/>
<feColorMatrix type="matrix" values="0 0 0 0 0 0 0 0 0 0 0 0 0 0 0 0 0 0 0.2 0"/>
<feBlend mode="normal" in2="BackgroundImageFix" result="effect1_dropShadow_572_3108"/>
<feBlend mode="normal" in="SourceGraphic" in2="effect1_dropShadow_572_3108" result="shape"/>
</filter>
<linearGradient id="paint0_linear_572_3108" x1="9" y1="1.5" x2="9" y2="16.5" gradientUnits="userSpaceOnUse">
<stop stop-color="white"/>
<stop offset="1" stop-color="white" stop-opacity="0.7"/>
</linearGradient>
<linearGradient id="paint1_linear_572_3108" x1="9" y1="1.5" x2="9" y2="16.5" gradientUnits="userSpaceOnUse">
<stop stop-color="white"/>
<stop offset="1" stop-color="white" stop-opacity="0.7"/>
</linearGradient>
<linearGradient id="paint2_linear_572_3108" x1="9" y1="1.5" x2="9" y2="16.5" gradientUnits="userSpaceOnUse">
<stop stop-color="white"/>
<stop offset="1" stop-color="white" stop-opacity="0.7"/>
</linearGradient>
<linearGradient id="paint3_linear_572_3108" x1="9" y1="1.5" x2="9" y2="16.5" gradientUnits="userSpaceOnUse">
<stop stop-color="white"/>
<stop offset="1" stop-color="white" stop-opacity="0.7"/>
</linearGradient>
</defs>
</svg>
