<svg width="48" height="46" viewBox="0 0 48 46" fill="none" xmlns="http://www.w3.org/2000/svg">
<path fill-rule="evenodd" clip-rule="evenodd" d="M15.34 5.27559C16.7196 5.60024 16.882 6.49297 16.4763 7.71041C15.2585 7.30462 15.1776 6.81768 15.34 5.27559ZM32.1405 27.0271L30.6794 26.8648C30.5176 26.1343 30.436 25.8908 30.5985 25.2415C31.1666 25.3227 30.6794 24.998 31.4915 25.972C31.8157 26.459 31.8972 26.5401 32.1405 27.0271ZM11.9311 20.5341C13.4731 20.5341 12.7426 20.5341 13.2298 20.2906L13.3922 21.8327C13.2298 21.9139 13.0674 21.995 12.8241 21.9139C12.905 21.7516 12.905 21.8327 12.9859 21.5892C12.7426 21.4269 12.0935 20.8588 11.9311 20.5341ZM23.375 0C19.317 0 15.5024 1.05511 12.1744 2.84069C12.1744 3.32766 12.1744 3.8958 12.256 4.46394C14.7719 3.08418 14.6903 1.78559 18.1807 2.67838L17.2069 3.16533C16.9629 3.24649 16.8005 3.32767 16.3948 3.40884C14.7718 4.05814 13.7164 5.76253 12.012 7.06112C12.0935 8.92785 13.0674 16.3948 13.1483 17.5311C13.798 17.6122 14.2846 18.2616 13.8789 18.8297C13.6356 19.2355 13.798 19.0732 13.9604 19.3167C13.798 19.8037 13.3922 19.7225 13.3922 20.2906C13.3922 20.6153 13.4731 21.3458 13.554 21.6704C13.9604 21.5892 13.8789 21.3458 14.3661 21.3458V21.9951C18.5049 21.9139 17.2069 21.3457 17.6935 20.2095C18.0992 20.2095 18.0183 20.2095 18.2616 20.6153C18.6674 21.4269 18.424 21.3458 18.7489 21.7516C18.9113 21.9951 18.9922 22.0762 18.9113 22.4009C18.5865 22.482 18.424 22.7255 18.0183 22.6443C17.6126 22.5632 17.3686 22.6444 17.0444 22.8067C15.5833 23.2937 16.4763 23.1313 15.0152 23.2124C15.0967 23.6183 16.3139 24.2676 16.8005 24.5111C17.2878 24.7545 17.775 24.3487 18.424 23.9429C19.1546 23.4559 19.1546 24.1864 18.8298 24.6734C18.6674 24.9169 18.5865 25.0792 18.3432 25.3227C18.0183 25.6473 18.1807 25.7285 17.9368 25.972C17.775 26.1343 17.5311 26.2966 17.2878 26.0532C16.882 25.8097 16.882 25.5662 15.989 25.2415C14.5285 24.7545 15.1776 24.5111 14.5285 24.8357C14.6094 25.1604 14.6903 25.0792 14.7718 25.3227C14.3661 25.5662 12.2559 26.946 11.8496 26.946C11.7687 26.7836 11.6878 26.3778 11.6063 26.2155C10.8757 26.2155 10.0642 26.6213 9.17126 26.5401C9.17126 26.2155 9.49609 26.0532 9.7394 25.2415L9.98335 23.6994C9.33367 23.6994 9.4961 24.0241 9.33368 23.1313C9.25279 22.8067 9.17126 22.3197 9.17126 21.9951C9.17126 21.5892 9.17126 21.1022 9.17126 20.6153C9.17126 20.2095 9.17126 20.453 9.00948 20.1283C8.84706 19.966 9.00948 19.966 9.00948 19.8036C7.87318 19.8036 7.71076 20.2906 6.41204 19.7225C5.27575 19.2355 5.27575 18.9108 4.87002 18.2615C4.46429 18.2615 4.22035 18.505 4.30188 18.992C4.7885 19.3167 5.19486 19.2355 5.35664 19.966C5.51906 20.5341 5.35664 21.2646 4.87002 21.4269C4.87002 21.4269 4.87002 21.4269 4.87002 21.3458C4.78849 21.0211 4.87002 21.0211 4.78849 20.7776C4.62672 21.1023 4.46429 21.5081 3.73372 21.4269C3.00316 21.3457 4.46429 21.1834 3.40889 20.6153C2.67832 20.2095 2.59743 19.0732 3.00316 18.2615C3.328 17.6122 3.65219 17.5311 4.46429 17.4499C4.30187 17.2876 4.22034 17.2876 3.97703 17.1253C3.73372 17.0442 3.57131 17.0442 3.40889 16.8818C3.6522 16.8007 3.97704 17.0441 4.30188 17.0441C4.13946 16.3948 4.38276 16.3137 4.78849 16.8007C4.95091 16.476 4.95091 16.0702 5.19486 15.6644C5.43817 15.0962 6.0872 14.3658 6.65535 14.0411C6.8993 13.96 6.81777 14.0411 7.14261 13.8788L7.71077 13.6353L5.92479 8.76556C5.51906 8.76556 5.19486 8.84671 4.95091 8.84671C1.86686 12.8237 0 17.8557 0 23.2937C0 25.485 0.324834 27.6764 0.892982 29.7054L0.973875 29.9489C1.05541 30.3547 1.21782 30.7606 1.38024 31.1664C3.49042 30.9229 6.73689 26.8648 8.44133 28.4069C10.0642 29.7867 8.76553 31.6534 12.3368 31.2475C10.7948 30.8417 9.98335 31.0852 9.7394 29.2997L12.6617 29.462H16.1515C16.1515 28.7315 16.2323 28.488 16.2323 27.9199V26.946C16.2323 26.946 16.2323 26.8648 16.2323 26.7836C16.2323 26.7836 16.233 26.7025 16.3139 26.6213L16.7196 27.1894L17.1253 28.0011L18.9113 26.946C18.3432 27.6764 18.3432 28.3257 18.6674 28.6504V28.5692L18.9113 28.8939C18.9922 28.975 19.1546 29.0562 19.2355 29.0562C20.2094 28.7315 22.5635 28.6504 23.6183 28.5692L28.4883 28.1634C28.894 27.4329 28.6507 27.5141 28.4883 26.6213C28.001 23.9429 29.787 22.8067 29.787 21.5892C28.4068 20.1283 26.2157 21.7516 27.1896 17.8557C27.7577 15.6644 30.2736 15.1774 31.7348 16.5572C31.7348 16.8007 31.4099 16.8818 31.7348 17.3687C31.9781 17.6934 32.2214 17.6122 32.6277 17.7746C33.4392 21.5892 31.8972 18.992 31.4915 20.9399C31.4099 21.5081 31.1666 22.4009 31.2475 22.969C31.4099 23.9429 32.4653 26.1343 33.0335 26.3778C33.5201 26.6213 34.1698 26.6213 34.3322 27.4329C34.5755 28.3257 33.1144 31.491 33.764 31.8969C34.4131 32.3027 34.1698 31.6534 34.6564 32.3027C34.6564 32.3027 34.5755 32.3027 34.5755 32.3838C34.494 32.6273 33.8449 32.3838 33.6825 32.3838C33.2768 32.2215 33.0335 32.0592 32.7895 31.8157C32.952 31.0852 33.1959 28.8939 33.0335 28.0822C32.7086 28.0011 32.6278 27.9199 32.1405 28.0011C31.9781 28.488 31.8156 28.8127 31.5723 29.0562C31.8156 29.2997 31.9781 29.6243 32.2214 29.9489C32.2214 30.9229 32.9519 32.3027 32.9519 33.6824C32.9519 35.3869 30.6793 42.6103 30.1112 44.0713C29.787 44.8017 29.4622 45.3698 29.0564 45.938C39.4449 43.422 47.0741 34.0882 47.0741 23.0502C46.9123 10.5511 36.3608 0 23.375 0ZM5.92479 9.00906C6.24963 9.00906 6.65535 8.92785 7.14261 8.92785C9.25278 8.76556 10.7139 8.03512 11.7687 7.14233L11.8496 7.79162C11.8496 8.35977 12.3368 12.3367 12.4177 13.2295C12.4177 13.6353 12.9859 17.7746 12.905 17.9369C12.8241 18.2615 12.7426 17.6934 12.905 18.5862C12.4177 18.7485 12.7426 19.0732 11.9311 18.8297C11.7687 18.7485 11.5254 18.6674 11.4439 18.6674C11.2005 18.6674 11.1197 18.6674 10.7948 18.6674C10.7948 17.8557 11.6878 17.937 11.4439 17.2064C11.363 17.0442 11.2821 16.9629 11.2821 16.8818C11.2005 16.7195 11.2821 16.5572 11.1197 16.3949C10.9572 16.1514 10.9572 16.3948 10.7948 16.1514C10.7139 16.0702 10.7139 15.9079 10.6324 15.7455C10.47 15.7455 10.2267 15.7455 10.0642 15.7455C9.98336 15.7455 9.98335 15.6644 9.90182 15.6644C9.7394 15.5021 9.98336 15.7455 9.82094 15.5832L9.7394 15.5021C9.33367 15.0151 9.17126 14.4469 8.68464 14.2034C8.3598 14.0411 8.11649 13.96 7.71077 13.96L5.92479 9.00906ZM7.30503 6.33068C7.46681 6.16839 7.71076 6.00603 7.87318 5.84374C7.87318 6.00603 7.95407 6.16839 7.95407 6.33068H7.30503ZM8.84705 4.95095C9.33367 4.6263 9.82094 4.22047 10.3076 3.89581C10.2267 4.78859 10.2267 4.86974 9.57762 5.35674C9.25278 5.27559 9.00947 5.11324 8.84705 4.95095ZM16.2323 4.54509C16.882 6.08718 18.0992 6.41182 20.1285 6.08718C20.1285 4.22045 17.6126 3.48999 16.2323 4.54509Z" fill="white"/>
</svg>
